<?xml version="1.0" encoding="utf-8"?>
<!-- Generator: Adobe Illustrator 26.3.1, SVG Export Plug-In . SVG Version: 6.00 Build 0)  -->
<svg version="1.1" id="Layer_1" xmlns="http://www.w3.org/2000/svg" xmlns:xlink="http://www.w3.org/1999/xlink" x="0px" y="0px"
	 viewBox="0 0 201.49 45.21" style="enable-background:new 0 0 201.49 45.21;" xml:space="preserve">
<style type="text/css">
	.st0{fill:#EDEEE9;}
	.st1{fill:#33403C;}
	.st2{fill:none;stroke:#000000;stroke-width:2;stroke-miterlimit:10;}
</style>
<g>
	<path class="st1" d="M27.91,37.67v0.17c0,0.38-0.38,0.64-0.94,0.64h-6.22c-0.6,0-0.94-0.26-0.94-0.64v-0.17
		c0-0.94,1.62-1.11,1.53-2.81l-0.43-8.23c-0.21-4.86-1.88-7.03-4.47-7.03c-2.73,0-4.48,2.22-4.48,5.28V34.9
		c0,1.66,1.75,1.83,1.75,2.77v0.17c0,0.38-0.34,0.64-0.94,0.64H6.18c-0.55,0-0.89-0.26-0.89-0.64v-0.17c0-0.94,1.7-1.11,1.7-2.77
		V23.47c0-1.88-1.92-1.92-1.92-2.86v-0.13c0-0.34,0.3-0.55,0.77-0.77l4.13-2c0.9-0.47,1.32,0.04,1.32,0.77v2.77
		c1.19-2.3,3.54-3.71,6.48-3.71c4.01,0,7.67,2.56,8.1,9.25l0.51,8.05C26.47,36.56,27.91,36.73,27.91,37.67z"/>
	<path class="st1" d="M48.8,32.59c-0.38,2.51-3.24,6.27-8.65,6.27c-5.71,0-10.1-4.22-10.1-10.83c0-6.09,4.56-10.48,10.19-10.48
		c5.5,0,7.97,3.28,7.97,6.27c0,1.62-0.85,2.51-2.17,2.98l-10.31,3.79c1.07,2.9,3.24,4.69,6.27,4.69c2.68,0,4.6-1.41,5.46-3.11
		C47.9,31.57,48.88,31.74,48.8,32.59z M34.99,26.12c0,0.98,0.08,1.88,0.25,2.73l7.08-3.07c0.77-0.34,1.11-0.94,1.11-1.79
		c0-1.75-1.58-4.82-4.05-4.82C36.69,19.17,34.99,22.03,34.99,26.12z"/>
	<path class="st1" d="M71.13,37.67v0.17c0,0.38-0.3,0.6-0.77,0.6h-7.37c-0.43,0-0.72-0.26-0.72-0.64v-0.13
		c0-0.9,2.22-0.98,0.64-2.98l-3.62-4.52l-4.01,4.69c-1.62,1.92,0.6,2,0.6,2.81v0.13c0,0.38-0.3,0.64-0.77,0.64h-5.24
		c-0.47,0-0.77-0.21-0.77-0.6v-0.17c0-0.85,1.58-1.15,3.2-2.98l5.58-6.35l-5.28-6.61c-1.62-2.05-2.77-2-2.77-2.98v-0.17
		c0-0.38,0.3-0.6,0.72-0.6h7.29c0.47,0,0.77,0.26,0.77,0.64v0.13c0,0.98-1.62,1.49-0.43,3.03l3.54,4.43l4.01-4.43
		c1.41-1.58-0.68-2.13-0.68-3.03v-0.13c0-0.38,0.3-0.64,0.72-0.64h4.39c0.43,0,0.72,0.21,0.72,0.6v0.17c0,0.9-1.07,1.32-2.47,2.98
		l-5.33,6.18l5.46,6.86C69.68,36.17,71.13,36.77,71.13,37.67z"/>
	<path class="st1" d="M74.88,31.96V20.07h-2.43c-0.43,0-0.72-0.3-0.72-0.72v-0.6c0-0.47,0.26-0.77,0.72-0.77h1.32
		c2.22,0,3.54-1.66,3.88-4.13c0.08-0.6,0.43-0.94,0.85-0.94h0.64c0.55,0,0.81,0.34,0.81,0.94l0.04,4.13h5.37
		c0.43,0,0.77,0.34,0.77,0.77v0.6c0,0.43-0.34,0.72-0.77,0.72h-5.37V32c0,2.05,1.02,3.15,2.43,3.15c1.79,0,2.77-0.98,3.03-2.22
		c0.38-0.68,1.41-0.55,1.41,0.21c0,2.86-2.17,5.71-6.01,5.71C77.26,38.86,74.88,36.56,74.88,31.96z"/>
	<path class="st1" d="M114.55,29.95c0,5.16-4.94,8.48-12.32,8.48H90.18c-0.55,0-0.89-0.21-0.89-0.6v-0.17c0-0.9,1.58-1.11,1.58-2.77
		V11.71c0-1.66-1.58-1.88-1.58-2.81V8.77c0-0.38,0.34-0.6,0.89-0.6h10.36c7.16,0,11.12,3.24,11.12,7.59c0,3.24-2.13,5.63-5.5,6.39
		C111.53,22.88,114.55,25.86,114.55,29.95z M96.02,19.51c0,1.11,0.77,1.83,1.88,1.83h3.84c3.24,0,5.33-2,5.33-4.77
		c0-3.92-2.6-6.22-6.69-6.22h-2.81c-0.85,0-1.53,0.43-1.53,1.7V19.51z M109.27,30.76c0-3.71-3.15-7.29-9.12-7.29h-4.13V33.7
		c0,1.49,0.94,2.56,2.3,2.56h3.5C106.88,36.26,109.27,34.34,109.27,30.76z"/>
	<path class="st1" d="M117.03,27.99c0-6.05,4.73-10.44,10.57-10.44c6.73,0,11.25,4.9,11.25,10.78c0,5.84-4.09,10.53-10.27,10.53
		C121.33,38.86,117.03,33.66,117.03,27.99z M133.82,30.08c0-5.97-2.86-10.91-6.78-10.91c-3.03,0-4.99,2.47-4.99,7.16
		c0,5.28,2.86,10.91,7.16,10.91C131.86,37.24,133.82,34.68,133.82,30.08z"/>
	<path class="st1" d="M141.4,27.99c0-6.05,4.73-10.44,10.57-10.44c6.73,0,11.25,4.9,11.25,10.78c0,5.84-4.09,10.53-10.27,10.53
		C145.71,38.86,141.4,33.66,141.4,27.99z M158.19,30.08c0-5.97-2.86-10.91-6.78-10.91c-3.03,0-4.99,2.47-4.99,7.16
		c0,5.28,2.86,10.91,7.16,10.91C156.23,37.24,158.19,34.68,158.19,30.08z"/>
	<path class="st1" d="M188.32,37.71v0.13c0,0.38-0.3,0.6-0.77,0.6h-6.86c-0.43,0-0.72-0.26-0.72-0.64v-0.09
		c0-0.94,1.58-1.11,0.81-2.09l-5.46-7.29l-2.9,2.69v3.88c0,1.66,1.75,1.79,1.75,2.77v0.13c0,0.38-0.38,0.64-0.94,0.64h-6.48
		c-0.55,0-0.89-0.26-0.89-0.64v-0.13c0-0.98,1.58-1.11,1.58-2.77V12.44c0-1.79-1.79-2.13-1.79-2.9V9.41c0-0.38,0.26-0.55,0.72-0.77
		l4.52-2.13c0.94-0.43,1.54,0.04,1.54,0.68V28.2l7.67-6.69c1.19-1.02-0.98-1.88-0.98-2.77v-0.13c0-0.43,0.3-0.64,0.77-0.64h5.46
		c0.43,0,0.72,0.21,0.72,0.6v0.13c0,0.94-1.88,1.45-3.32,2.77l-4.18,3.84l7.59,10.31C186.87,36.6,188.32,36.81,188.32,37.71z"/>
</g>
</svg>
